<?xml version="1.0" encoding="UTF-8"?>
<svg id="Layer_2" data-name="Layer 2" xmlns="http://www.w3.org/2000/svg" xmlns:xlink="http://www.w3.org/1999/xlink" viewBox="0 0 172.02 172.02">
  <defs>
    <style>
      .cls-1, .cls-2 {
        stroke-width: 0px;
      }

      .cls-1, .cls-3 {
        fill: #011f4b;
      }

      .cls-2 {
        fill: #fff;
      }

      .cls-4 {
        clip-path: url(#clippath);
      }
    </style>
    <clipPath id="clippath">
      <circle class="cls-1" cx="86.01" cy="86.01" r="86.01"/>
    </clipPath>
  </defs>
  <g id="Layer_1-2" data-name="Layer 1">
    <g>
      <circle class="cls-3" cx="86.01" cy="86.01" r="86.01"/>
      <g class="cls-4">
        <path class="cls-2" d="m152.48,207.52c-12.95-.06-10.91,1.22-12.97-11.17-1.13-6.79-.03-5.99-6.84-5.11-10.73,1.39-21.45,1.54-32.13-.11-3.43-.53-4.86.33-5.04,3.84-.15,2.77-.9,5.51-1.24,8.28-.37,3.08-2.05,4.34-5.08,4.29-4.19-.08-8.38-.08-12.56,0-2.83.06-4.63-1.19-5.02-3.94-1.84-12.82-7.26-23.4-18.62-30.38-.23-.14-.44-.37-.58-.6-4.9-8.15-12.78-10.18-21.56-11.03-8.28-.8-8.25-1.15-8.24-9.58,0-6.28.12-12.57-.05-18.85-.09-3.37,1.1-5.59,4.54-5.73,9.48-.38,15.1-4.81,17.36-14.3,1.14-4.81,4.21-9.13,7.25-13.13,1.77-2.33,1.78-4.4.98-6.96-2.18-6.97-5.32-13.48-8.99-19.77-3.1-5.32-1.72-7.8,4.53-7.59,10.62.36,20.64,3.33,30.07,8.14,2.57,1.31,4.68,1.45,7.44.51,26.49-9,52.8-8.15,78.47,2.84,19.14,8.2,31.1,22.66,34.58,43.58.29,1.76.24,3.85,2.97,3.59,2.84-.28,5.63-.87,7.36-3.36.74-1.06-.7-1.6-1.39-2.19-2.58-2.24-4.69-4.81-5.59-8.17-1.01-3.76-.25-7.01,3.27-9.07,3.42-1.99,6.71-1.41,9.65,1.17,2.97,2.62,3.76,6.05,3.71,9.84-.01,1.05-.85,2.46.3,3.09,1.25.69,2.3-.61,3.35-1.21.71-.41,1.33-1.01,1.94-1.58,1.36-1.28,2.84-2.01,4.38-.45,1.76,1.79.62,3.33-.76,4.67-2.66,2.6-5.79,4.36-9.53,4.87-1.54.21-2.93.37-4.03,1.78-3,3.85-7.07,5.91-11.91,6.1-2.61.11-2.85,1.48-2.83,3.52.07,7.75-1.3,15.28-3.8,22.6-2.05,6.02-5.36,11.31-9.35,16.24-7.48,9.23-14.38,18.92-20.19,29.27-2.62,4.66-5.66,6.94-10.94,6.07-.95-.16-1.95-.02-2.93-.02Zm-32.18-129.49c-7.26-.01-14.45.69-21.55,2.15-2.04.42-4.58.71-3.94,3.68.57,2.66,2.85,2.12,4.79,1.73,15.11-3.01,30.15-2.67,45.11,1.02,2,.49,4.16.95,4.74-1.68.57-2.58-1.54-3.17-3.54-3.67-8.41-2.09-16.94-3.17-25.61-3.23Zm-54.69,40.34c-.36-2.98-1.97-4.66-4.86-4.82-2.71-.15-5.04,2.41-4.74,5.15.32,2.9,2.05,4.58,4.99,4.46,2.95-.12,4.37-2.01,4.61-4.79Zm147.57-6.58c-.24-2.53-.58-5.14-3.72-5.63-1.44-.23-2.43.97-2.07,2.41.65,2.61,1.89,5.16,4.63,5.87,1.34.34.82-1.67,1.15-2.65Z"/>
      </g>
    </g>
  </g>
</svg>